<mxfile host="app.diagrams.net" modified="2023-07-25T23:44:53.511Z" agent="Mozilla/5.0 (Windows NT 10.0; Win64; x64) AppleWebKit/537.36 (KHTML, like Gecko) Chrome/114.0.0.0 Safari/537.36" etag="Lt7loJXXZ4rfFUbhbuVr" version="21.6.5" type="github">
  <diagram id="6a731a19-8d31-9384-78a2-239565b7b9f0" name="Page-1">
    <mxGraphModel dx="1434" dy="1601" grid="1" gridSize="10" guides="1" tooltips="1" connect="1" arrows="1" fold="1" page="1" pageScale="1" pageWidth="1169" pageHeight="827" background="none" math="0" shadow="0">
      <root>
        <mxCell id="0" />
        <mxCell id="1" parent="0" />
        <mxCell id="UgG5REFlC_BB2Rdx2z05-145" value="Servidor de Aplicação - 187.191.99.163" style="swimlane;" vertex="1" parent="1">
          <mxGeometry x="710" y="-780" width="440" height="770" as="geometry">
            <mxRectangle x="710" y="-810" width="260" height="30" as="alternateBounds" />
          </mxGeometry>
        </mxCell>
        <mxCell id="UgG5REFlC_BB2Rdx2z05-62" value="Administra-core&lt;br&gt;" style="swimlane;fontStyle=0;childLayout=stackLayout;horizontal=1;startSize=30;horizontalStack=0;resizeParent=1;resizeParentMax=0;resizeLast=0;collapsible=1;marginBottom=0;whiteSpace=wrap;html=1;" vertex="1" parent="UgG5REFlC_BB2Rdx2z05-145">
          <mxGeometry x="55" y="580" width="140" height="110" as="geometry">
            <mxRectangle x="400" y="697" width="120" height="30" as="alternateBounds" />
          </mxGeometry>
        </mxCell>
        <mxCell id="UgG5REFlC_BB2Rdx2z05-63" value="Model&lt;br&gt;" style="text;strokeColor=none;fillColor=none;align=left;verticalAlign=middle;spacingLeft=4;spacingRight=4;overflow=hidden;points=[[0,0.5],[1,0.5]];portConstraint=eastwest;rotatable=0;whiteSpace=wrap;html=1;" vertex="1" parent="UgG5REFlC_BB2Rdx2z05-62">
          <mxGeometry y="30" width="140" height="30" as="geometry" />
        </mxCell>
        <mxCell id="UgG5REFlC_BB2Rdx2z05-64" value="Service" style="text;strokeColor=none;fillColor=none;align=left;verticalAlign=middle;spacingLeft=4;spacingRight=4;overflow=hidden;points=[[0,0.5],[1,0.5]];portConstraint=eastwest;rotatable=0;whiteSpace=wrap;html=1;" vertex="1" parent="UgG5REFlC_BB2Rdx2z05-62">
          <mxGeometry y="60" width="140" height="30" as="geometry" />
        </mxCell>
        <mxCell id="UgG5REFlC_BB2Rdx2z05-65" value="Repository&lt;br&gt;" style="text;strokeColor=none;fillColor=none;align=left;verticalAlign=middle;spacingLeft=4;spacingRight=4;overflow=hidden;points=[[0,0.5],[1,0.5]];portConstraint=eastwest;rotatable=0;whiteSpace=wrap;html=1;" vertex="1" parent="UgG5REFlC_BB2Rdx2z05-62">
          <mxGeometry y="90" width="140" height="20" as="geometry" />
        </mxCell>
        <mxCell id="UgG5REFlC_BB2Rdx2z05-130" style="edgeStyle=elbowEdgeStyle;rounded=0;orthogonalLoop=1;jettySize=auto;html=1;startArrow=none;endArrow=none;exitX=0;exitY=0.75;exitDx=0;exitDy=0;" edge="1" parent="UgG5REFlC_BB2Rdx2z05-145">
          <mxGeometry relative="1" as="geometry">
            <mxPoint x="55" y="167.5" as="sourcePoint" />
            <mxPoint x="55" y="167.5" as="targetPoint" />
          </mxGeometry>
        </mxCell>
        <mxCell id="UgG5REFlC_BB2Rdx2z05-164" value="ApiRest" style="swimlane;fontStyle=0;childLayout=stackLayout;horizontal=1;startSize=26;fillColor=none;horizontalStack=0;resizeParent=1;resizeParentMax=0;resizeLast=0;collapsible=1;marginBottom=0;html=1;" vertex="1" parent="UgG5REFlC_BB2Rdx2z05-145">
          <mxGeometry x="55" y="280" width="190" height="182" as="geometry">
            <mxRectangle x="55" y="280" width="80" height="30" as="alternateBounds" />
          </mxGeometry>
        </mxCell>
        <mxCell id="UgG5REFlC_BB2Rdx2z05-172" value="AdministraComprasController" style="text;strokeColor=none;fillColor=none;align=left;verticalAlign=top;spacingLeft=4;spacingRight=4;overflow=hidden;rotatable=0;points=[[0,0.5],[1,0.5]];portConstraint=eastwest;whiteSpace=wrap;html=1;" vertex="1" parent="UgG5REFlC_BB2Rdx2z05-164">
          <mxGeometry y="26" width="190" height="26" as="geometry" />
        </mxCell>
        <mxCell id="UgG5REFlC_BB2Rdx2z05-165" value="AdministraController" style="text;strokeColor=none;fillColor=none;align=left;verticalAlign=top;spacingLeft=4;spacingRight=4;overflow=hidden;rotatable=0;points=[[0,0.5],[1,0.5]];portConstraint=eastwest;whiteSpace=wrap;html=1;" vertex="1" parent="UgG5REFlC_BB2Rdx2z05-164">
          <mxGeometry y="52" width="190" height="26" as="geometry" />
        </mxCell>
        <mxCell id="UgG5REFlC_BB2Rdx2z05-168" value="AdministraEstoqueController" style="text;strokeColor=none;fillColor=none;align=left;verticalAlign=top;spacingLeft=4;spacingRight=4;overflow=hidden;rotatable=0;points=[[0,0.5],[1,0.5]];portConstraint=eastwest;whiteSpace=wrap;html=1;" vertex="1" parent="UgG5REFlC_BB2Rdx2z05-164">
          <mxGeometry y="78" width="190" height="26" as="geometry" />
        </mxCell>
        <mxCell id="UgG5REFlC_BB2Rdx2z05-167" value="AdministraFinanceiroController" style="text;strokeColor=none;fillColor=none;align=left;verticalAlign=top;spacingLeft=4;spacingRight=4;overflow=hidden;rotatable=0;points=[[0,0.5],[1,0.5]];portConstraint=eastwest;whiteSpace=wrap;html=1;" vertex="1" parent="UgG5REFlC_BB2Rdx2z05-164">
          <mxGeometry y="104" width="190" height="26" as="geometry" />
        </mxCell>
        <mxCell id="UgG5REFlC_BB2Rdx2z05-166" value="AdministraIntegracaoController" style="text;strokeColor=none;fillColor=none;align=left;verticalAlign=top;spacingLeft=4;spacingRight=4;overflow=hidden;rotatable=0;points=[[0,0.5],[1,0.5]];portConstraint=eastwest;whiteSpace=wrap;html=1;" vertex="1" parent="UgG5REFlC_BB2Rdx2z05-164">
          <mxGeometry y="130" width="190" height="26" as="geometry" />
        </mxCell>
        <mxCell id="UgG5REFlC_BB2Rdx2z05-170" value="PocketWebController" style="text;strokeColor=none;fillColor=none;align=left;verticalAlign=top;spacingLeft=4;spacingRight=4;overflow=hidden;rotatable=0;points=[[0,0.5],[1,0.5]];portConstraint=eastwest;whiteSpace=wrap;html=1;" vertex="1" parent="UgG5REFlC_BB2Rdx2z05-164">
          <mxGeometry y="156" width="190" height="26" as="geometry" />
        </mxCell>
        <mxCell id="UgG5REFlC_BB2Rdx2z05-196" value="XML WebService" style="swimlane;fontStyle=0;childLayout=stackLayout;horizontal=1;startSize=26;fillColor=none;horizontalStack=0;resizeParent=1;resizeParentMax=0;resizeLast=0;collapsible=1;marginBottom=0;html=1;" vertex="1" parent="UgG5REFlC_BB2Rdx2z05-145">
          <mxGeometry x="90" y="50" width="140" height="130" as="geometry" />
        </mxCell>
        <mxCell id="UgG5REFlC_BB2Rdx2z05-197" value="EprocSegService.asmx&lt;br&gt;" style="text;strokeColor=none;fillColor=none;align=left;verticalAlign=top;spacingLeft=4;spacingRight=4;overflow=hidden;rotatable=0;points=[[0,0.5],[1,0.5]];portConstraint=eastwest;whiteSpace=wrap;html=1;" vertex="1" parent="UgG5REFlC_BB2Rdx2z05-196">
          <mxGeometry y="26" width="140" height="26" as="geometry" />
        </mxCell>
        <mxCell id="UgG5REFlC_BB2Rdx2z05-198" value="Service.asmx" style="text;strokeColor=none;fillColor=none;align=left;verticalAlign=top;spacingLeft=4;spacingRight=4;overflow=hidden;rotatable=0;points=[[0,0.5],[1,0.5]];portConstraint=eastwest;whiteSpace=wrap;html=1;" vertex="1" parent="UgG5REFlC_BB2Rdx2z05-196">
          <mxGeometry y="52" width="140" height="26" as="geometry" />
        </mxCell>
        <mxCell id="UgG5REFlC_BB2Rdx2z05-207" value="EprocRepWs.asmx" style="text;strokeColor=none;fillColor=none;align=left;verticalAlign=top;spacingLeft=4;spacingRight=4;overflow=hidden;rotatable=0;points=[[0,0.5],[1,0.5]];portConstraint=eastwest;whiteSpace=wrap;html=1;" vertex="1" parent="UgG5REFlC_BB2Rdx2z05-196">
          <mxGeometry y="78" width="140" height="26" as="geometry" />
        </mxCell>
        <mxCell id="UgG5REFlC_BB2Rdx2z05-199" value="SimasWS.asmx" style="text;strokeColor=none;fillColor=none;align=left;verticalAlign=top;spacingLeft=4;spacingRight=4;overflow=hidden;rotatable=0;points=[[0,0.5],[1,0.5]];portConstraint=eastwest;whiteSpace=wrap;html=1;" vertex="1" parent="UgG5REFlC_BB2Rdx2z05-196">
          <mxGeometry y="104" width="140" height="26" as="geometry" />
        </mxCell>
        <mxCell id="UgG5REFlC_BB2Rdx2z05-210" value="" style="endArrow=classic;startArrow=classic;html=1;rounded=0;" edge="1" parent="UgG5REFlC_BB2Rdx2z05-145">
          <mxGeometry width="50" height="50" relative="1" as="geometry">
            <mxPoint x="140" y="270" as="sourcePoint" />
            <mxPoint x="140" y="190" as="targetPoint" />
          </mxGeometry>
        </mxCell>
        <mxCell id="UgG5REFlC_BB2Rdx2z05-220" value="AdministraPreCalcService" style="rounded=0;whiteSpace=wrap;html=1;" vertex="1" parent="UgG5REFlC_BB2Rdx2z05-145">
          <mxGeometry x="270" y="40" width="150" height="50" as="geometry" />
        </mxCell>
        <mxCell id="UgG5REFlC_BB2Rdx2z05-221" value="AdministraSincService" style="rounded=0;whiteSpace=wrap;html=1;" vertex="1" parent="UgG5REFlC_BB2Rdx2z05-145">
          <mxGeometry x="270" y="110" width="150" height="50" as="geometry" />
        </mxCell>
        <mxCell id="UgG5REFlC_BB2Rdx2z05-223" value="" style="endArrow=classic;startArrow=classic;html=1;rounded=0;" edge="1" parent="UgG5REFlC_BB2Rdx2z05-145">
          <mxGeometry width="50" height="50" relative="1" as="geometry">
            <mxPoint x="240" y="140" as="sourcePoint" />
            <mxPoint x="260" y="140" as="targetPoint" />
            <Array as="points" />
          </mxGeometry>
        </mxCell>
        <mxCell id="UgG5REFlC_BB2Rdx2z05-224" value="" style="endArrow=classic;startArrow=classic;html=1;rounded=0;" edge="1" parent="UgG5REFlC_BB2Rdx2z05-145">
          <mxGeometry width="50" height="50" relative="1" as="geometry">
            <mxPoint x="240" y="80" as="sourcePoint" />
            <mxPoint x="260" y="80" as="targetPoint" />
            <Array as="points" />
          </mxGeometry>
        </mxCell>
        <mxCell id="UgG5REFlC_BB2Rdx2z05-209" value="" style="endArrow=classic;startArrow=classic;html=1;rounded=0;entryX=0.993;entryY=0.769;entryDx=0;entryDy=0;entryPerimeter=0;" edge="1" parent="UgG5REFlC_BB2Rdx2z05-145" target="UgG5REFlC_BB2Rdx2z05-199">
          <mxGeometry width="50" height="50" relative="1" as="geometry">
            <mxPoint x="200" y="650" as="sourcePoint" />
            <mxPoint x="190" y="230" as="targetPoint" />
            <Array as="points">
              <mxPoint x="230" y="650" />
              <mxPoint x="260" y="650" />
              <mxPoint x="260" y="500" />
              <mxPoint x="260" y="250" />
              <mxPoint x="229" y="250" />
            </Array>
          </mxGeometry>
        </mxCell>
        <mxCell id="UgG5REFlC_BB2Rdx2z05-149" value="Servidor Banco de Dados - 177.70.122.199" style="swimlane;" vertex="1" parent="1">
          <mxGeometry x="20" y="-310" width="540" height="300" as="geometry" />
        </mxCell>
        <mxCell id="UgG5REFlC_BB2Rdx2z05-148" value="EProcSeg" style="shape=datastore;whiteSpace=wrap;html=1;" vertex="1" parent="UgG5REFlC_BB2Rdx2z05-149">
          <mxGeometry x="20" y="170" width="110" height="110" as="geometry" />
        </mxCell>
        <mxCell id="UgG5REFlC_BB2Rdx2z05-163" value="" style="shape=datastore;whiteSpace=wrap;html=1;" vertex="1" parent="UgG5REFlC_BB2Rdx2z05-149">
          <mxGeometry x="210" y="40" width="200" height="240" as="geometry" />
        </mxCell>
        <mxCell id="UgG5REFlC_BB2Rdx2z05-175" value="" style="shape=table;startSize=0;container=1;collapsible=0;childLayout=tableLayout;fontSize=16;" vertex="1" parent="UgG5REFlC_BB2Rdx2z05-149">
          <mxGeometry x="220" y="130" width="180" height="120" as="geometry" />
        </mxCell>
        <mxCell id="UgG5REFlC_BB2Rdx2z05-176" value="" style="shape=tableRow;horizontal=0;startSize=0;swimlaneHead=0;swimlaneBody=0;strokeColor=inherit;top=0;left=0;bottom=0;right=0;collapsible=0;dropTarget=0;fillColor=none;points=[[0,0.5],[1,0.5]];portConstraint=eastwest;fontSize=16;" vertex="1" parent="UgG5REFlC_BB2Rdx2z05-175">
          <mxGeometry width="180" height="60" as="geometry" />
        </mxCell>
        <mxCell id="UgG5REFlC_BB2Rdx2z05-177" value="&lt;font style=&quot;font-size: 12px;&quot;&gt;Eproc_N&lt;/font&gt;" style="shape=partialRectangle;html=1;whiteSpace=wrap;connectable=0;strokeColor=inherit;overflow=hidden;fillColor=none;top=0;left=0;bottom=0;right=0;pointerEvents=1;fontSize=16;" vertex="1" parent="UgG5REFlC_BB2Rdx2z05-176">
          <mxGeometry width="60" height="60" as="geometry">
            <mxRectangle width="60" height="60" as="alternateBounds" />
          </mxGeometry>
        </mxCell>
        <mxCell id="UgG5REFlC_BB2Rdx2z05-178" value="&lt;font style=&quot;font-size: 12px;&quot;&gt;Eproc_N&lt;/font&gt;" style="shape=partialRectangle;html=1;whiteSpace=wrap;connectable=0;strokeColor=inherit;overflow=hidden;fillColor=none;top=0;left=0;bottom=0;right=0;pointerEvents=1;fontSize=16;" vertex="1" parent="UgG5REFlC_BB2Rdx2z05-176">
          <mxGeometry x="60" width="60" height="60" as="geometry">
            <mxRectangle width="60" height="60" as="alternateBounds" />
          </mxGeometry>
        </mxCell>
        <mxCell id="UgG5REFlC_BB2Rdx2z05-179" value="&lt;font style=&quot;font-size: 12px;&quot;&gt;Eproc_N&lt;/font&gt;" style="shape=partialRectangle;html=1;whiteSpace=wrap;connectable=0;strokeColor=inherit;overflow=hidden;fillColor=none;top=0;left=0;bottom=0;right=0;pointerEvents=1;fontSize=16;" vertex="1" parent="UgG5REFlC_BB2Rdx2z05-176">
          <mxGeometry x="120" width="60" height="60" as="geometry">
            <mxRectangle width="60" height="60" as="alternateBounds" />
          </mxGeometry>
        </mxCell>
        <mxCell id="UgG5REFlC_BB2Rdx2z05-180" value="" style="shape=tableRow;horizontal=0;startSize=0;swimlaneHead=0;swimlaneBody=0;strokeColor=inherit;top=0;left=0;bottom=0;right=0;collapsible=0;dropTarget=0;fillColor=none;points=[[0,0.5],[1,0.5]];portConstraint=eastwest;fontSize=16;" vertex="1" parent="UgG5REFlC_BB2Rdx2z05-175">
          <mxGeometry y="60" width="180" height="60" as="geometry" />
        </mxCell>
        <mxCell id="UgG5REFlC_BB2Rdx2z05-181" value="&lt;font style=&quot;font-size: 12px;&quot;&gt;Eproc_N&lt;/font&gt;" style="shape=partialRectangle;html=1;whiteSpace=wrap;connectable=0;strokeColor=inherit;overflow=hidden;fillColor=none;top=0;left=0;bottom=0;right=0;pointerEvents=1;fontSize=16;" vertex="1" parent="UgG5REFlC_BB2Rdx2z05-180">
          <mxGeometry width="60" height="60" as="geometry">
            <mxRectangle width="60" height="60" as="alternateBounds" />
          </mxGeometry>
        </mxCell>
        <mxCell id="UgG5REFlC_BB2Rdx2z05-182" value="&lt;font style=&quot;font-size: 12px;&quot;&gt;Eproc&lt;/font&gt;" style="shape=partialRectangle;html=1;whiteSpace=wrap;connectable=0;strokeColor=inherit;overflow=hidden;fillColor=none;top=0;left=0;bottom=0;right=0;pointerEvents=1;fontSize=16;" vertex="1" parent="UgG5REFlC_BB2Rdx2z05-180">
          <mxGeometry x="60" width="60" height="60" as="geometry">
            <mxRectangle width="60" height="60" as="alternateBounds" />
          </mxGeometry>
        </mxCell>
        <mxCell id="UgG5REFlC_BB2Rdx2z05-183" value="&lt;font style=&quot;font-size: 12px;&quot;&gt;Eproc_N&lt;/font&gt;" style="shape=partialRectangle;html=1;whiteSpace=wrap;connectable=0;strokeColor=inherit;overflow=hidden;fillColor=none;top=0;left=0;bottom=0;right=0;pointerEvents=1;fontSize=16;" vertex="1" parent="UgG5REFlC_BB2Rdx2z05-180">
          <mxGeometry x="120" width="60" height="60" as="geometry">
            <mxRectangle width="60" height="60" as="alternateBounds" />
          </mxGeometry>
        </mxCell>
        <mxCell id="UgG5REFlC_BB2Rdx2z05-219" value="" style="endArrow=classic;startArrow=classic;html=1;rounded=0;" edge="1" parent="UgG5REFlC_BB2Rdx2z05-149">
          <mxGeometry width="50" height="50" relative="1" as="geometry">
            <mxPoint x="140" y="210" as="sourcePoint" />
            <mxPoint x="200" y="210" as="targetPoint" />
          </mxGeometry>
        </mxCell>
        <mxCell id="UgG5REFlC_BB2Rdx2z05-208" value="" style="endArrow=classic;startArrow=classic;html=1;rounded=0;" edge="1" parent="1">
          <mxGeometry width="50" height="50" relative="1" as="geometry">
            <mxPoint x="570" y="-210" as="sourcePoint" />
            <mxPoint x="710" y="-210" as="targetPoint" />
          </mxGeometry>
        </mxCell>
        <mxCell id="UgG5REFlC_BB2Rdx2z05-212" value="" style="endArrow=classic;startArrow=classic;html=1;rounded=0;" edge="1" parent="1">
          <mxGeometry width="50" height="50" relative="1" as="geometry">
            <mxPoint x="160" y="-590" as="sourcePoint" />
            <mxPoint x="780" y="-660" as="targetPoint" />
          </mxGeometry>
        </mxCell>
        <mxCell id="UgG5REFlC_BB2Rdx2z05-213" value="" style="endArrow=classic;startArrow=classic;html=1;rounded=0;" edge="1" parent="1">
          <mxGeometry width="50" height="50" relative="1" as="geometry">
            <mxPoint x="160" y="-640" as="sourcePoint" />
            <mxPoint x="780" y="-680" as="targetPoint" />
          </mxGeometry>
        </mxCell>
        <mxCell id="UgG5REFlC_BB2Rdx2z05-214" value="" style="endArrow=classic;startArrow=classic;html=1;rounded=0;" edge="1" parent="1">
          <mxGeometry width="50" height="50" relative="1" as="geometry">
            <mxPoint x="160" y="-700" as="sourcePoint" />
            <mxPoint x="780" y="-700" as="targetPoint" />
          </mxGeometry>
        </mxCell>
        <mxCell id="UgG5REFlC_BB2Rdx2z05-215" value="" style="endArrow=classic;startArrow=classic;html=1;rounded=0;" edge="1" parent="1">
          <mxGeometry width="50" height="50" relative="1" as="geometry">
            <mxPoint x="160" y="-770" as="sourcePoint" />
            <mxPoint x="780" y="-720" as="targetPoint" />
          </mxGeometry>
        </mxCell>
        <mxCell id="UgG5REFlC_BB2Rdx2z05-216" value="" style="endArrow=classic;startArrow=classic;html=1;rounded=0;" edge="1" parent="1">
          <mxGeometry width="50" height="50" relative="1" as="geometry">
            <mxPoint x="150" y="-500" as="sourcePoint" />
            <mxPoint x="740" y="-460" as="targetPoint" />
          </mxGeometry>
        </mxCell>
        <mxCell id="UgG5REFlC_BB2Rdx2z05-217" value="" style="endArrow=classic;startArrow=classic;html=1;rounded=0;" edge="1" parent="1">
          <mxGeometry width="50" height="50" relative="1" as="geometry">
            <mxPoint x="150" y="-440" as="sourcePoint" />
            <mxPoint x="740" y="-440" as="targetPoint" />
          </mxGeometry>
        </mxCell>
        <mxCell id="UgG5REFlC_BB2Rdx2z05-218" value="" style="endArrow=classic;startArrow=classic;html=1;rounded=0;" edge="1" parent="1">
          <mxGeometry width="50" height="50" relative="1" as="geometry">
            <mxPoint x="150" y="-370" as="sourcePoint" />
            <mxPoint x="740" y="-420" as="targetPoint" />
          </mxGeometry>
        </mxCell>
        <mxCell id="UgG5REFlC_BB2Rdx2z05-225" value="Auditto" style="ellipse;shape=doubleEllipse;whiteSpace=wrap;html=1;" vertex="1" parent="1">
          <mxGeometry x="470" y="-827" width="180" height="60" as="geometry" />
        </mxCell>
        <mxCell id="UgG5REFlC_BB2Rdx2z05-226" value="" style="endArrow=classic;startArrow=classic;html=1;rounded=0;" edge="1" parent="1">
          <mxGeometry width="50" height="50" relative="1" as="geometry">
            <mxPoint x="650" y="-772" as="sourcePoint" />
            <mxPoint x="780" y="-740" as="targetPoint" />
          </mxGeometry>
        </mxCell>
        <mxCell id="UgG5REFlC_BB2Rdx2z05-227" value="Softwares" style="swimlane;whiteSpace=wrap;html=1;" vertex="1" parent="1">
          <mxGeometry x="10" y="-827" width="170" height="500" as="geometry" />
        </mxCell>
        <mxCell id="UgG5REFlC_BB2Rdx2z05-136" value="Pocket Cheff Reports" style="rounded=0;whiteSpace=wrap;html=1;" vertex="1" parent="UgG5REFlC_BB2Rdx2z05-227">
          <mxGeometry x="9" y="441" width="120" height="50" as="geometry" />
        </mxCell>
        <mxCell id="UgG5REFlC_BB2Rdx2z05-188" value="Adminsitra Web" style="rounded=0;whiteSpace=wrap;html=1;" vertex="1" parent="UgG5REFlC_BB2Rdx2z05-227">
          <mxGeometry x="10" y="377" width="120" height="50" as="geometry" />
        </mxCell>
        <mxCell id="UgG5REFlC_BB2Rdx2z05-135" value="Pocket Web" style="rounded=0;whiteSpace=wrap;html=1;" vertex="1" parent="UgG5REFlC_BB2Rdx2z05-227">
          <mxGeometry x="10" y="317" width="120" height="50" as="geometry" />
        </mxCell>
        <mxCell id="UgG5REFlC_BB2Rdx2z05-174" value="Disco-T" style="rounded=0;whiteSpace=wrap;html=1;" vertex="1" parent="UgG5REFlC_BB2Rdx2z05-227">
          <mxGeometry x="9" y="225" width="120" height="50" as="geometry" />
        </mxCell>
        <mxCell id="UgG5REFlC_BB2Rdx2z05-173" value="Pocket" style="rounded=0;whiteSpace=wrap;html=1;" vertex="1" parent="UgG5REFlC_BB2Rdx2z05-227">
          <mxGeometry x="9" y="157" width="120" height="50" as="geometry" />
        </mxCell>
        <mxCell id="UgG5REFlC_BB2Rdx2z05-134" value="Simas Flex" style="rounded=0;whiteSpace=wrap;html=1;" vertex="1" parent="UgG5REFlC_BB2Rdx2z05-227">
          <mxGeometry x="10" y="97" width="120" height="50" as="geometry" />
        </mxCell>
        <mxCell id="UgG5REFlC_BB2Rdx2z05-133" value="Administra Flex" style="rounded=0;whiteSpace=wrap;html=1;" vertex="1" parent="UgG5REFlC_BB2Rdx2z05-227">
          <mxGeometry x="10" y="27" width="120" height="50" as="geometry" />
        </mxCell>
      </root>
    </mxGraphModel>
  </diagram>
</mxfile>
